<?xml version="1.0" standalone="no"?><!DOCTYPE svg PUBLIC "-//W3C//DTD SVG 1.1//EN" "http://www.w3.org/Graphics/SVG/1.1/DTD/svg11.dtd"><svg t="1601385142890" class="icon" viewBox="0 0 1024 1024" version="1.1" xmlns="http://www.w3.org/2000/svg" p-id="5855" xmlns:xlink="http://www.w3.org/1999/xlink" width="200" height="200"><defs><style type="text/css"></style></defs><path d="M759.944533 987.682133H387.754667a30.037333 30.037333 0 0 1-30.037334-30.037333v-88.337067h-39.185066a79.4624 79.4624 0 0 1-79.325867-79.325866v-104.0384h-46.967467A56.9344 56.9344 0 0 1 142.9504 600.746667L204.8 494.523733a10.6496 10.6496 0 0 0 1.2288-6.007466c0-8.6016-0.955733-17.339733-0.955733-25.8048a340.514133 340.514133 0 0 1 189.098666-306.517334A27.306667 27.306667 0 0 1 418.6112 204.8 286.72 286.72 0 0 0 259.413333 462.711467c0 7.236267 0 14.472533 0.8192 21.572266a64.7168 64.7168 0 0 1-8.328533 37.546667L190.190933 628.053333a2.321067 2.321067 0 0 0 2.048 3.549867h64.443734a37.137067 37.137067 0 0 1 37.000533 37.000533v121.6512a24.712533 24.712533 0 0 0 24.712533 24.712534h48.059734A45.738667 45.738667 0 0 1 412.330667 860.16v72.635733h315.392l-24.302934-88.064a98.986667 98.986667 0 0 1-3.549866-23.074133l-2.594134-79.735467a61.576533 61.576533 0 0 1 23.7568-50.926933A286.72 286.72 0 0 0 832.853333 430.626133a281.668267 281.668267 0 0 0-12.151466-56.661333 27.306667 27.306667 0 0 1 51.882666-16.7936 336.2816 336.2816 0 0 1 14.472534 68.266667 341.333333 341.333333 0 0 1-132.437334 309.794133 7.099733 7.099733 0 0 0-2.321066 5.870933l2.594133 79.735467a44.2368 44.2368 0 0 0 1.501867 10.376533l33.041066 119.876267a27.306667 27.306667 0 0 1 0.955734 7.236267 30.037333 30.037333 0 0 1-30.446934 29.354666z" fill="#0073FF" p-id="5856"></path><path d="M712.157867 523.4688h-130.6624a30.037333 30.037333 0 0 1-30.037334-30.037333V436.906667a78.916267 78.916267 0 0 0-28.945066-60.2112 192.238933 192.238933 0 0 1-68.266667-150.186667A195.515733 195.515733 0 0 1 638.839467 36.4544a193.058133 193.058133 0 0 1 133.256533 339.694933A81.92 81.92 0 0 0 742.1952 436.906667v56.1152a30.037333 30.037333 0 0 1-30.037333 30.446933z m-106.0864-54.613333h81.92V436.906667A136.533333 136.533333 0 0 1 737.28 334.6432a138.4448 138.4448 0 0 0-95.573333-243.575467 140.0832 140.0832 0 0 0-132.7104 136.533334 137.898667 137.898667 0 0 0 49.425066 108.1344A133.393067 133.393067 0 0 1 606.071467 436.906667zM686.8992 597.879467h-80.145067a27.306667 27.306667 0 0 1 0-54.613334h80.2816a27.306667 27.306667 0 0 1 0 54.613334z" fill="#0073FF" p-id="5857"></path></svg>